<?xml version="1.0" encoding="UTF-8"?>
<svg id="Camada_2" data-name="Camada 2" xmlns="http://www.w3.org/2000/svg" viewBox="0 0 511 833.2">
  <g id="Camada_1-2" data-name="Camada 1">
    <path d="M0,720.19V106.16c1.3-.16,2.63-.18,3.89-.5,16.87-4.19,31.58-13.16,45.49-22.85,21.35-14.89,41.59-31.37,62.45-46.98,17.08-12.78,35.7-22.73,55.92-29.65,7.32-2.51,14.07-3.51,19.14,4.25,1.14,1.75,3.08,3.01,4.71,4.42,7.63,6.57,17.03,5.18,26,5.78,10.06,.67,18.36-3.04,25.55-9.85,3.84-3.64,7.88-7.05,12.09-10.79,4.64,4.3,9,8.92,13.96,12.74,3.56,2.74,7.71,5.2,11.99,6.37,4.53,1.24,9.58,.38,14.28,1.19,8.25,1.43,15.44-.99,21.97-5.48,3.38-2.32,5.87-5.9,9.09-8.51,1.47-1.19,4.06-2.37,5.59-1.87,7.93,2.57,15.85,5.3,23.47,8.68,25.11,11.12,46.71,27.73,68.26,44.37,21.59,16.68,42.65,34.21,68.19,44.77,5.97,2.47,12.62,3.31,18.96,4.9V720.19c-1.42,1.09-2.91,2.1-4.26,3.28-4.5,3.9-8.33,9.27-13.53,11.51-13.32,5.73-27.16,10.34-40.94,14.93-21.75,7.23-43.8,13.6-65.41,21.22-20.83,7.35-41.3,15.74-61.86,23.83-20.18,7.94-39.47,17.71-57.68,29.5-3.99,2.58-7.55,5.81-11.31,8.74h-1c-9.49-6.33-18.47-13.64-28.57-18.78-16.86-8.59-34.2-16.34-51.75-23.43-19.27-7.79-38.93-14.63-58.54-21.52-10.85-3.81-22-6.75-32.94-10.3-18.1-5.86-36.09-12.08-54.23-17.8-12.13-3.83-22.16-10.21-28.96-21.16Z"/>
  </g>
</svg>