<?xml version="1.0" encoding="UTF-8"?>
<svg id="Camada_2" data-name="Camada 2" xmlns="http://www.w3.org/2000/svg" xmlns:xlink="http://www.w3.org/1999/xlink" viewBox="0 0 19.62 18.67">
  <defs>
    <style>
      .cls-1 {
        fill: url(#Gradiente_sem_nome_18);
      }
    </style>
    <linearGradient id="Gradiente_sem_nome_18" data-name="Gradiente sem nome 18" x1="10.1" y1=".82" x2="9.65" y2="14.6" gradientUnits="userSpaceOnUse">
      <stop offset="0" stop-color="#dbac4b"/>
      <stop offset=".21" stop-color="#ca9a44"/>
      <stop offset=".62" stop-color="#9f6c35"/>
      <stop offset="1" stop-color="#723c25"/>
    </linearGradient>
  </defs>
  <g id="Camada_1-2" data-name="Camada 1">
    <path class="cls-1" d="M0,9c.05-.31,.09-.62,.16-.92,.11-.49,.31-.95,.69-1.3,.25-.23,.54-.35,.88-.35,.19,0,.38,0,.57,0,.14,0,.2-.06,.23-.2,.14-.6,.24-1.22,.46-1.79,.56-1.49,1.56-2.63,2.93-3.45C7.24,.19,8.69-.05,10.21,0c1.02,.04,2,.23,2.92,.68,1.47,.71,2.56,1.79,3.28,3.25,.34,.69,.56,1.42,.65,2.19,.03,.28,.06,.29,.36,.3,.29,.01,.6-.01,.87,.07,.59,.18,.89,.67,1.06,1.22,.13,.44,.23,.91,.25,1.37,.03,.79,.03,1.58-.03,2.37-.05,.72-.36,1.33-1.05,1.67-.28,.14-.59,.14-.9,.14-.54,0-.43-.06-.55,.43-.23,.95-.54,1.86-1.12,2.66-.56,.78-1.3,1.33-2.27,1.45-.55,.07-1.11,.05-1.66,.05-.23,0-.38,.04-.52,.26-.2,.33-.52,.51-.91,.53-.5,.02-1.01,.02-1.51,0-.64-.03-1.13-.59-1.15-1.24-.02-.62,.46-1.23,1.08-1.29,.53-.05,1.06-.04,1.59-.02,.43,.02,.76,.25,.98,.62,.08,.14,.19,.19,.34,.19,.36,0,.72,0,1.07,0,.94,.02,1.67-.37,2.2-1.12,.5-.71,.76-1.52,.96-2.36,.03-.11-.02-.15-.13-.16-.17,0-.35,0-.52-.02-.42-.05-.72-.36-.76-.78,0-.1-.01-.19-.01-.29,0-1.55,0-3.1,0-4.66,0-.71,.18-.94,.87-1.1,.13-.03,.12-.13,.1-.21-.08-.37-.14-.74-.27-1.09-.66-1.78-1.9-2.97-3.71-3.53-.99-.31-2.02-.32-3.04-.16-2.01,.3-3.44,1.41-4.3,3.24-.23,.48-.32,1.02-.47,1.53-.04,.14,.02,.22,.18,.24,.45,.06,.74,.38,.78,.84,0,.06,0,.13,0,.19,0,1.59,0,3.18,0,4.77,0,.13,0,.26-.04,.38-.11,.36-.35,.62-.73,.63-.85,.03-1.7,.05-2.55,0-.76-.05-1.18-.57-1.41-1.25-.08-.23-.11-.47-.16-.7,0-.77,0-1.53,0-2.3Z"/>
  </g>
</svg>